<?xml version="1.0" encoding="UTF-8" standalone="no"?>
<svg
   xmlns:dc="http://purl.org/dc/elements/1.1/"
   xmlns:cc="http://creativecommons.org/ns#"
   xmlns:rdf="http://www.w3.org/1999/02/22-rdf-syntax-ns#"
   xmlns:svg="http://www.w3.org/2000/svg"
   xmlns="http://www.w3.org/2000/svg"
   xmlns:sodipodi="http://sodipodi.sourceforge.net/DTD/sodipodi-0.dtd"
   xmlns:inkscape="http://www.inkscape.org/namespaces/inkscape"
   width="256px"
   height="256px"
   viewBox="0 0 256 256"
   version="1.1"
   preserveAspectRatio="xMidYMid"
   id="svg10"
   sodipodi:docname="icon.svg"
   inkscape:version="0.92.3 (2405546, 2018-03-11)">
  <metadata
     id="metadata16">
    <rdf:RDF>
      <cc:Work
         rdf:about="">
        <dc:format>image/svg+xml</dc:format>
        <dc:type
           rdf:resource="http://purl.org/dc/dcmitype/StillImage" />
        <dc:title />
      </cc:Work>
    </rdf:RDF>
  </metadata>
  <defs
     id="defs14" />
  <sodipodi:namedview
     pagecolor="#ffffff"
     bordercolor="#666666"
     borderopacity="1"
     objecttolerance="10"
     gridtolerance="10"
     guidetolerance="10"
     inkscape:pageopacity="0"
     inkscape:pageshadow="2"
     inkscape:window-width="1920"
     inkscape:window-height="1015"
     id="namedview12"
     showgrid="false"
     inkscape:zoom="0.9589844"
     inkscape:cx="207.85586"
     inkscape:cy="202.14865"
     inkscape:window-x="1440"
     inkscape:window-y="0"
     inkscape:window-maximized="1"
     inkscape:current-layer="svg10" />
  <rect
     style="fill:#89bf04;stroke-width:1;fill-opacity:1"
     id="rect3707"
     width="256"
     height="256"
     x="0"
     y="1.5005469e-05"
     inkscape:export-xdpi="52.5"
     inkscape:export-ydpi="52.5" />
  <path
     style="fill:#ffffff;stroke-width:0.80849999"
     inkscape:connector-curvature="0"
     id="path2"
     d="M 127.23974,231.48551 C 72.092754,231.10515 24.142456,185.33756 24.514147,127.19013 24.871499,71.239955 71.365917,24.13284 128.89745,24.514301 c 55.91352,0.371538 103.08625,46.782983 102.58662,103.642709 0.46323,56.34376 -46.94221,103.7265 -104.24433,103.3285 z m 0,0 C 72.092754,231.10515 24.142456,185.33756 24.514147,127.19013 24.871499,71.239955 71.365917,24.13284 128.89745,24.514301 c 55.91352,0.371538 103.08625,46.782983 102.58662,103.642709 0.46323,56.34376 -46.94221,103.7265 -104.24433,103.3285 z" />
  <path
     style="fill:#6d9a00;stroke-width:0.80849999;fill-opacity:1"
     inkscape:connector-curvature="0"
     id="path4"
     d="M 127.34078,217.74134 C 79.516176,217.41142 37.936018,177.72173 38.258362,127.29776 38.568604,78.777384 78.887991,37.926398 128.77868,38.258511 c 48.4869,0.322215 89.39486,40.57056 88.96141,89.878329 0.40155,48.86018 -40.70664,89.94981 -90.39931,89.6045 z m 0,0 C 79.516176,217.41142 37.936018,177.72173 38.258362,127.29776 38.568604,78.777384 78.887991,37.926398 128.77868,38.258511 c 48.4869,0.322215 89.39486,40.57056 88.96141,89.878329 0.40155,48.86018 -40.70664,89.94981 -90.39931,89.6045 z" />
  <path
     style="fill:#ffffff;stroke-width:0.80849999"
     inkscape:connector-curvature="0"
     id="path6"
     d="m 161.41314,127.96456 c -0.2301,4.27713 -3.96667,7.82875 -7.64931,7.20893 -0.0176,0 -0.0363,0 -0.0551,0 -4.07897,0.006 -7.38949,-3.29731 -7.39388,-7.37628 0.13871,-4.08997 3.53069,-7.31351 7.62177,-7.24416 4.07898,0.0198 7.69665,3.46685 7.47646,7.41151 z M 95.822663,169.4115 c 1.538008,0.0451 3.077117,0.0121 4.850727,0.0121 v 11.14587 c -11.023676,1.86389 -20.104198,-1.26608 -22.332492,-10.58439 -0.762949,-3.42612 -1.231947,-6.91168 -1.403694,-10.41817 -0.236701,-3.71235 0.172847,-7.46654 -0.110093,-11.17229 C 76.043244,138.19776 74.722121,134.7166 64.937,134.23438 v -12.69049 c 0.701296,-0.16403 1.412501,-0.28514 2.128109,-0.3655 5.364863,-0.26423 7.626186,-1.90903 8.826206,-7.19352 0.546064,-2.96922 0.86974,-5.97478 0.965521,-8.99245 0.424961,-5.83496 0.274133,-11.764602 1.24626,-17.504884 1.404794,-8.301058 6.558276,-12.333787 15.070715,-12.785171 2.42206,-0.129911 4.851825,-0.01982 7.596459,-0.01982 v 11.392487 c -1.12956,0.08037 -2.16444,0.244408 -3.192714,0.213582 -6.936999,-0.212481 -7.295904,2.150129 -7.802335,7.892611 -0.315969,3.601163 0.120002,7.263985 -0.125507,10.877255 -0.256518,3.59566 -0.737627,7.1726 -1.440025,10.7088 -1.00075,5.12487 -4.151629,8.9363 -8.517942,12.17085 8.476107,5.5157 9.440527,14.08648 9.990996,22.78938 0.296151,4.67678 0.160736,9.38659 0.63524,14.04024 0.369914,3.61218 1.774709,4.53366 5.50468,4.64375 z m 7.143977,-48.85845 c 0.044,0 0.087,0 0.13101,0 4.05254,0.0672 7.28489,3.4063 7.21774,7.45994 0,0.13322 -0.004,0.26534 -0.0121,0.39745 -0.22789,3.96116 -3.62318,6.98653 -7.58435,6.75864 -0.15963,0.003 -0.31817,0 -0.4778,-0.008 -4.033835,-0.20037 -7.141778,-3.63309 -6.941408,-7.66693 0.200371,-4.03382 3.63309,-7.14177 7.666918,-6.9414 z m 25.25437,0 c 4.43237,-0.0341 7.37628,2.83822 7.39939,7.21994 0.0243,4.49953 -2.76665,7.37848 -7.17039,7.39719 -4.47861,0.0198 -7.42692,-2.81289 -7.45113,-7.16819 -0.0132,-0.22239 -0.0165,-0.44478 -0.01,-0.66717 0.1244,-3.86979 3.36226,-6.90617 7.23205,-6.78177 z m 52.87576,-5.55092 c 1.1791,4.40375 3.47456,5.95166 8.1106,6.16305 0.75965,0.0352 1.51599,0.16403 2.55747,0.27963 V 134.132 c -0.56368,0.18496 -1.14166,0.32368 -1.72847,0.41396 -6.21257,0.38642 -9.04418,2.93509 -9.67172,9.16418 -0.40074,3.97658 -0.36771,7.99721 -0.64294,11.9881 -0.1156,4.38172 -0.51414,8.75134 -1.19342,13.08132 -1.58535,7.84527 -6.48341,11.7591 -14.5764,12.23691 -2.60481,0.15413 -5.22834,0.0242 -8.03683,0.0242 v -11.33964 c 1.51159,-0.0936 2.84592,-0.22239 4.18356,-0.25432 4.83531,-0.11559 6.54507,-1.67452 6.78177,-6.47681 0.26202,-5.27569 0.37651,-10.55797 0.61212,-15.83476 0.34239,-7.62728 2.43087,-14.44098 9.5363,-19.19812 -4.06575,-2.89877 -7.33003,-6.40965 -8.17555,-11.14368 -1.02277,-5.73808 -1.35305,-11.60277 -1.90351,-17.421215 -0.27193,-2.908673 -0.25872,-5.842669 -0.54277,-8.74914 -0.30605,-3.137668 -2.46169,-4.223191 -5.31752,-4.293651 -1.63599,-0.03963 -3.27859,-0.0077 -5.37036,-0.0077 V 75.248488 c 13.34774,-2.216185 22.56809,2.224992 23.42461,14.995851 0.35891,5.36266 0.30606,10.750641 0.64956,16.113301 0.15083,2.91748 0.58679,5.81294 1.3035,8.64455 z" />
</svg>
