<svg version="1.1" xmlns="http://www.w3.org/2000/svg" xmlns:xlink="http://www.w3.org/1999/xlink" width="70" height="70" viewBox="0,0,70,70"><!-- Generated with https://ivantodorovich.github.io/odoo-icon --><defs><linearGradient x1="70" y1="0" x2="0" y2="70" gradientUnits="userSpaceOnUse" id="color-1"><stop offset="0" stop-color="#afe675"/><stop offset="1" stop-color="#7cb342"/></linearGradient></defs><g fill="none" fill-rule="nonzero" stroke="none" stroke-width="1" stroke-linecap="butt" stroke-linejoin="miter" stroke-miterlimit="10" stroke-dasharray="" stroke-dashoffset="0" font-family="none" font-weight="none" font-size="none" text-anchor="none" style="mix-blend-mode: normal"><path d="M3.5,70c-1.933,0 -3.5,-1.567 -3.5,-3.5v-63c0,-1.933 1.567,-3.5 3.5,-3.5h63c1.933,0 3.5,1.567 3.5,3.5v63c0,1.933 -1.567,3.5 -3.5,3.5z" id="box" fill="url(#color-1)"/><path d="M65,1h-61c-1.95033,0 -3.2667,0.63396 -3.9491,1.90189c0.28378,-1.64806 1.72001,-2.90189 3.4491,-2.90189h63c1.72965,0 3.16627,1.25466 3.44938,2.90352c-0.69803,-1.26902 -2.34782,-1.90352 -4.94938,-1.90352z" id="topBoxShadow" fill="#ffffff" opacity="0.383"/><path d="M4,69h61c2.66667,0 4.33333,-1 5,-3v0.5c0,1.933 -1.567,3.5 -3.5,3.5h-63c-1.933,0 -3.5,-1.567 -3.5,-3.5c0,-0.1611 0,-0.32777 0,-0.5c0.66667,2 2,3 4,3z" id="bottomBoxShadow" fill="#000000" opacity="0.383"/><path d="M35,13c-13.23456,0 -24,10.76544 -24,24c0,13.23456 10.76544,24 24,24c13.23456,0 24,-10.76544 24,-24c0,-13.23456 -10.76544,-24 -24,-24zM35,15.29056c11.99232,0 21.70944,9.71856 21.70944,21.70944c0,11.99088 -9.71856,21.70944 -21.70944,21.70944c-11.99232,0 -21.70944,-9.71856 -21.70944,-21.70944c0,-11.99088 9.71856,-21.70944 21.70944,-21.70944zM27.74144,24.73456c-0.28224,-0.00768 -0.56256,0 -0.852,0.00768c-1.96032,0.11856 -3.13968,1.03968 -3.468,2.94576c-0.22656,1.33632 -0.18768,2.69376 -0.28224,4.03824c-0.02592,0.69504 -0.10416,1.38672 -0.23376,2.07024c-0.26544,1.21968 -0.78768,1.60176 -2.02944,1.66368c-0.16656,0.01632 -0.32976,0.048 -0.48576,0.08544v2.92224c2.25024,0.10944 2.556,0.90768 2.73456,3.25824c0.072,0.85968 -0.02256,1.72032 0.03168,2.57856c0.04032,0.81456 0.14832,1.61856 0.312,2.4c0.516,2.148 2.61744,2.86656 5.14944,2.436v-2.56944c-0.408,0 -0.76656,0.00768 -1.11024,0c-0.86832,-0.024 -1.188,-0.24144 -1.26576,-1.06944c-0.11856,-1.06944 -0.08544,-2.15568 -0.14832,-3.23376c-0.13344,-2.00832 -0.35232,-3.97632 -2.31168,-5.24976c1.008,-0.74256 1.74144,-1.62576 1.968,-2.79744c0.16368,-0.82032 0.26544,-1.64832 0.32832,-2.47632c0.06288,-0.828 -0.03744,-1.68 0.03168,-2.50032c0.11568,-1.32768 0.20256,-1.87344 1.79568,-1.81968c0.24144,0 0.47568,-0.03168 0.74256,-0.05376v-2.61744c-0.31968,0 -0.61632,-0.00768 -0.90576,-0.01632zM42.93056,24.75856c-0.5472,-0.01632 -1.0944,0.02352 -1.63344,0.11856v2.54544c0.49344,0 0.876,0 1.24944,0.00768c0.65856,0.00768 1.15776,0.26544 1.21968,0.99168c0.06144,0.66432 0.06144,1.33632 0.12432,2.00832c0.13344,1.344 0.204,2.69376 0.43824,4.01568c0.204,1.08624 0.95376,1.89744 1.88256,2.56944c-1.632,1.09344 -2.11632,2.664 -2.19456,4.42944c-0.048,1.20144 -0.07776,2.42256 -0.13968,3.64032c-0.05568,1.10976 -0.44544,1.46832 -1.56432,1.49232c-0.312,0.01632 -0.61632,0.04032 -0.96,0.06144v2.60976c0.648,0 1.24944,0.04032 1.85232,0c1.85856,-0.10944 2.99232,-1.01568 3.35856,-2.82768c0.15744,-0.99552 0.24912,-2.00016 0.27456,-3.00768c0.06144,-0.92256 0.05424,-1.85232 0.14832,-2.76624c0.13968,-1.42944 0.79824,-2.02368 2.22576,-2.11632c0.13344,-0.01632 0.26544,-0.048 0.40032,-0.08544v-2.92944c-0.24144,-0.03168 -0.40656,-0.05568 -0.58656,-0.06144c-1.06944,-0.048 -1.60224,-0.408 -1.87632,-1.42224c-0.16512,-0.6504 -0.264,-1.31568 -0.29568,-1.98576c-0.07776,-1.23456 -0.07056,-2.484 -0.14832,-3.71856c-0.16368,-2.38224 -1.59456,-3.50832 -3.77424,-3.56976zM29.14832,35.31232c-2.148,0 -2.304,3.16368 -0.17232,3.36768h0.11856c0.43872,0.0264 0.86928,-0.12288 1.1976,-0.41472c0.32832,-0.29184 0.52704,-0.70224 0.55248,-1.14048v-0.09168c0.01584,-0.93168 -0.72432,-1.70064 -1.656,-1.72032zM34.96832,35.31232c-0.8928,-0.02688 -1.63968,0.672 -1.67232,1.56432c0,0.05376 0,0.10032 0.00768,0.156c0,1.008 0.68832,1.64832 1.72032,1.64832c1.01568,0 1.656,-0.66432 1.656,-1.704c-0.00768,-1.008 -0.68832,-1.67232 -1.71168,-1.66368zM40.89056,35.31232c-0.94176,-0.01296 -1.72032,0.73104 -1.75056,1.67232c0,0.93744 0.75744,1.69632 1.704,1.69632h0.01632c0.85056,0.14832 1.70256,-0.672 1.75824,-1.656c0.04656,-0.91344 -0.78144,-1.71168 -1.728,-1.71168z" id="shadow" fill="#000000" opacity="0.3"/><path d="M18.03704,18.03704c4.34568,-4.34568 10.34568,-7.03704 16.96296,-7.03704c13.23456,0 24,10.76544 24,24c0,6.61728 -2.69136,12.61728 -7.03704,16.96296l-18.03704,18.03704h-30.42592c-1.933,0 -3.5,-1.567 -3.5,-3.5l0,-30.42592z" id="flatShadow" fill="#000000" opacity="0.324"/><path d="M35,11c-13.23456,0 -24,10.76544 -24,24c0,13.23456 10.76544,24 24,24c13.23456,0 24,-10.76544 24,-24c0,-13.23456 -10.76544,-24 -24,-24zM35,13.29056c11.99232,0 21.70944,9.71856 21.70944,21.70944c0,11.99088 -9.71856,21.70944 -21.70944,21.70944c-11.99232,0 -21.70944,-9.71856 -21.70944,-21.70944c0,-11.99088 9.71856,-21.70944 21.70944,-21.70944zM27.74144,22.73456c-0.28224,-0.00768 -0.56256,0 -0.852,0.00768c-1.96032,0.11856 -3.13968,1.03968 -3.468,2.94576c-0.22656,1.33632 -0.18768,2.69376 -0.28224,4.03824c-0.02592,0.69504 -0.10416,1.38672 -0.23376,2.07024c-0.26544,1.21968 -0.78768,1.60176 -2.02944,1.66368c-0.16656,0.01632 -0.32976,0.048 -0.48576,0.08544v2.92224c2.25024,0.10944 2.556,0.90768 2.73456,3.25824c0.072,0.85968 -0.02256,1.72032 0.03168,2.57856c0.04032,0.81456 0.14832,1.61856 0.312,2.4c0.516,2.148 2.61744,2.86656 5.14944,2.436v-2.56944c-0.408,0 -0.76656,0.00768 -1.11024,0c-0.86832,-0.024 -1.188,-0.24144 -1.26576,-1.06944c-0.11856,-1.06944 -0.08544,-2.15568 -0.14832,-3.23376c-0.13344,-2.00832 -0.35232,-3.97632 -2.31168,-5.24976c1.008,-0.74256 1.74144,-1.62576 1.968,-2.79744c0.16368,-0.82032 0.26544,-1.64832 0.32832,-2.47632c0.06288,-0.828 -0.03744,-1.68 0.03168,-2.50032c0.11568,-1.32768 0.20256,-1.87344 1.79568,-1.81968c0.24144,0 0.47568,-0.03168 0.74256,-0.05376v-2.61744c-0.31968,0 -0.61632,-0.00768 -0.90576,-0.01632zM42.93056,22.75856c-0.5472,-0.01632 -1.0944,0.02352 -1.63344,0.11856v2.54544c0.49344,0 0.876,0 1.24944,0.00768c0.65856,0.00768 1.15776,0.26544 1.21968,0.99168c0.06144,0.66432 0.06144,1.33632 0.12432,2.00832c0.13344,1.344 0.204,2.69376 0.43824,4.01568c0.204,1.08624 0.95376,1.89744 1.88256,2.56944c-1.632,1.09344 -2.11632,2.664 -2.19456,4.42944c-0.048,1.20144 -0.07776,2.42256 -0.13968,3.64032c-0.05568,1.10976 -0.44544,1.46832 -1.56432,1.49232c-0.312,0.01632 -0.61632,0.04032 -0.96,0.06144v2.60976c0.648,0 1.24944,0.04032 1.85232,0c1.85856,-0.10944 2.99232,-1.01568 3.35856,-2.82768c0.15744,-0.99552 0.24912,-2.00016 0.27456,-3.00768c0.06144,-0.92256 0.05424,-1.85232 0.14832,-2.76624c0.13968,-1.42944 0.79824,-2.02368 2.22576,-2.11632c0.13344,-0.01632 0.26544,-0.048 0.40032,-0.08544v-2.92944c-0.24144,-0.03168 -0.40656,-0.05568 -0.58656,-0.06144c-1.06944,-0.048 -1.60224,-0.408 -1.87632,-1.42224c-0.16512,-0.6504 -0.264,-1.31568 -0.29568,-1.98576c-0.07776,-1.23456 -0.07056,-2.484 -0.14832,-3.71856c-0.16368,-2.38224 -1.59456,-3.50832 -3.77424,-3.56976zM29.14832,33.31232c-2.148,0 -2.304,3.16368 -0.17232,3.36768h0.11856c0.43872,0.0264 0.86928,-0.12288 1.1976,-0.41472c0.32832,-0.29184 0.52704,-0.70224 0.55248,-1.14048v-0.09168c0.01584,-0.93168 -0.72432,-1.70064 -1.656,-1.72032zM34.96832,33.31232c-0.8928,-0.02688 -1.63968,0.672 -1.67232,1.56432c0,0.05376 0,0.10032 0.00768,0.156c0,1.008 0.68832,1.64832 1.72032,1.64832c1.01568,0 1.656,-0.66432 1.656,-1.704c-0.00768,-1.008 -0.68832,-1.67232 -1.71168,-1.66368zM40.89056,33.31232c-0.94176,-0.01296 -1.72032,0.73104 -1.75056,1.67232c0,0.93744 0.75744,1.69632 1.704,1.69632h0.01632c0.85056,0.14832 1.70256,-0.672 1.75824,-1.656c0.04656,-0.91344 -0.78144,-1.71168 -1.728,-1.71168z" id="icon" fill="#ffffff"/></g></svg>